<?xml version="1.0" encoding="utf-8"?>
<!-- Generator: Adobe Illustrator 16.0.4, SVG Export Plug-In . SVG Version: 6.00 Build 0)  -->
<!DOCTYPE svg PUBLIC "-//W3C//DTD SVG 1.1//EN" "http://www.w3.org/Graphics/SVG/1.1/DTD/svg11.dtd">
<svg version="1.1" id="Layer_1" xmlns="http://www.w3.org/2000/svg" xmlns:xlink="http://www.w3.org/1999/xlink" x="0px" y="0px"
	 width="30px" height="30px" viewBox="1.5 0 30 30" enable-background="new 1.5 0 30 30" xml:space="preserve">
<g>
	<g>
		<path fill="#4D4744" d="M3.6,15c0,5.1,3,9.5,7.2,11.6L4.8,9.8C4,11.4,3.6,13.1,3.6,15z"/>
		<path fill="#4D4744" d="M25.2,14.3c0-1.6-0.6-2.7-1.1-3.5c-0.7-1.1-1.3-2-1.3-3c0-1.2,0.9-2.3,2.2-2.3c0.1,0,0.1,0,0.2,0
			c-2.3-2.1-5.3-3.4-8.7-3.4C12,2.1,8,4.4,5.8,7.9c0.3,0,0.6,0,0.8,0c1.3,0,3.4-0.2,3.4-0.2c0.7,0,0.8,1,0.1,1.1
			c0,0-0.7,0.1-1.5,0.1l4.7,13.9l2.8-8.4l-2-5.5c-0.7,0-1.3-0.1-1.3-0.1c-0.7,0-0.6-1.1,0.1-1.1c0,0,2.1,0.2,3.4,0.2
			c1.3,0,3.4-0.2,3.4-0.2c0.7,0,0.8,1,0.1,1.1c0,0-0.7,0.1-1.5,0.1l4.6,13.8l1.3-4.3C24.7,16.7,25.2,15.4,25.2,14.3z"/>
		<path fill="#4D4744" d="M16.7,16.1l-3.9,11.2c1.2,0.3,2.4,0.5,3.6,0.5c1.5,0,2.9-0.3,4.3-0.7c0-0.1-0.1-0.1-0.1-0.2L16.7,16.1z"/>
		<path fill="#4D4744" d="M27.8,8.8c0.1,0.4,0.1,0.8,0.1,1.3c0,1.3-0.2,2.8-1,4.6l-3.9,11.3c3.8-2.2,6.4-6.4,6.4-11.1
			C29.3,12.8,28.8,10.7,27.8,8.8z"/>
		<path fill="#4D4744" d="M16.5,0c-8.3,0-15,6.7-15,15c0,8.3,6.7,15,15,15c8.3,0,15-6.7,15-15C31.5,6.7,24.7,0,16.5,0z M16.5,29.3
			C8.6,29.3,2.2,22.9,2.2,15c0-7.9,6.4-14.3,14.3-14.3c7.9,0,14.3,6.4,14.3,14.3C30.8,22.9,24.4,29.3,16.5,29.3z"/>
	</g>
</g>
</svg>
