<?xml version="1.0" encoding="utf-8"?>
<!-- Generator: Adobe Illustrator 16.0.4, SVG Export Plug-In . SVG Version: 6.00 Build 0)  -->
<!DOCTYPE svg PUBLIC "-//W3C//DTD SVG 1.1//EN" "http://www.w3.org/Graphics/SVG/1.1/DTD/svg11.dtd">
<svg version="1.1" id="Layer_1" xmlns="http://www.w3.org/2000/svg" xmlns:xlink="http://www.w3.org/1999/xlink" x="0px" y="0px"
	 width="45px" height="45px" viewBox="0 0 45 45" enable-background="new 0 0 45 45" xml:space="preserve">
<g>
	<path fill="#FEFDFD" d="M22.104,32.091c-2.6-0.101-5.699,0-8.699-0.3c-0.4,0-0.9-0.101-1.4-0.2c-1.2-0.3-2-0.9-2.4-2.101
		c-0.399-1-0.5-2.199-0.6-3.3c-0.2-3-0.2-6.1,0.1-9.1c0.101-0.601,0.2-1.2,0.5-1.8c0.601-1.4,1.801-2,3.301-2.101
		c5.6-0.3,11.199-0.399,16.8-0.1c1,0,2,0,3,0.2c1.3,0.199,2.2,0.899,2.7,2.199c0.399,1,0.5,2.101,0.6,3.301c0.2,3.1,0.2,6.1-0.2,9.1
		c-0.1,0.7-0.3,1.4-0.6,2c-0.7,1.3-1.8,1.8-3.3,1.9C28.804,31.99,25.604,32.091,22.104,32.091z M19.704,25.99
		c2.5-1.3,4.899-2.5,7.3-3.8c-2.5-1.3-4.9-2.5-7.3-3.8C19.704,20.891,19.704,23.391,19.704,25.99z"/>
</g>
</svg>
