<?xml version="1.0" encoding="utf-8"?>
<!-- Generator: Adobe Illustrator 16.0.4, SVG Export Plug-In . SVG Version: 6.00 Build 0)  -->
<!DOCTYPE svg PUBLIC "-//W3C//DTD SVG 1.1//EN" "http://www.w3.org/Graphics/SVG/1.1/DTD/svg11.dtd">
<svg version="1.1" id="Layer_1" xmlns="http://www.w3.org/2000/svg" xmlns:xlink="http://www.w3.org/1999/xlink" x="0px" y="0px"
	 width="45.1px" height="45px" viewBox="37.3 37.5 45.1 45" enable-background="new 37.3 37.5 45.1 45" xml:space="preserve">
<g>
	<path fill="#FEFDFD" d="M54.6,72.4c-5.8-2.4-9.9-9.4-7.4-16.7c2.4-7.1,10.1-10.9,17.3-8.3c7.1,2.5,10.8,10.3,8.1,17.5
		C70,72,62.4,74.9,56.3,73c0.6-1,1.1-2,1.4-3.1c0.3-1.1,0.6-2.2,0.9-3.4c1,1.3,2.4,1.7,3.9,1.6c1.7-0.2,3.2-0.9,4.4-2.2
		c1.2-1.4,1.9-3,2.2-4.8c0.3-1.5,0.3-3.1-0.2-4.6c-0.8-2.2-2.3-3.8-4.5-4.6c-3.6-1.3-7-1-10.1,1.3c-2.8,2.1-3.9,5.8-2.9,8.8
		c0.4,1.2,1.1,2.1,2.2,2.6c0.5,0.3,0.7,0.1,0.9-0.4c0-0.1,0-0.3,0.1-0.4c0.3-0.6,0.1-1-0.3-1.6c-0.9-1.2-0.8-2.7-0.5-4.1
		c0.7-2.6,2.9-4.4,5.6-4.6c1-0.1,2-0.1,2.9,0.2c2,0.6,3.2,2,3.5,4c0.3,2.1-0.1,4.1-1.1,6c-0.6,1-1.4,1.8-2.6,2.1
		c-1.8,0.4-3.1-1-2.6-2.7c0.3-1.3,0.8-2.5,1.1-3.9c0.1-0.3,0.1-0.6,0.1-0.9c-0.1-1.6-1.5-2.4-2.9-1.5c-0.8,0.5-1.2,1.3-1.4,2.2
		c-0.2,0.9-0.1,1.8,0.2,2.7c0.1,0.3,0.1,0.6,0,0.9c-0.6,2.4-1.1,4.8-1.7,7.2C54.6,70.6,54.6,71.5,54.6,72.4z"/>
</g>
</svg>
