<?xml version="1.0" encoding="utf-8"?>
<!-- Generator: Adobe Illustrator 16.0.4, SVG Export Plug-In . SVG Version: 6.00 Build 0)  -->
<!DOCTYPE svg PUBLIC "-//W3C//DTD SVG 1.1//EN" "http://www.w3.org/Graphics/SVG/1.1/DTD/svg11.dtd">
<svg version="1.1" id="Layer_1" xmlns="http://www.w3.org/2000/svg" xmlns:xlink="http://www.w3.org/1999/xlink" x="0px" y="0px"
	 width="45px" height="45px" viewBox="22.5 22.5 45 45" enable-background="new 22.5 22.5 45 45" xml:space="preserve">
<g>
	<path fill="#FFFFFF" d="M47.7,32.2c-0.6,0.3-1.2,0.8-1.8,1c-0.6,0.3-1.3,0-2,0.1c0,0.1,0.1,0.2,0.2,0.2c2.4,2,2.7,6.1,0.3,8.3
		c-0.5,0.5-1.1,0.9-1.5,1.5c-0.4,0.7-0.4,1.3,0.1,2c0.3,0.4,0.7,0.7,1.1,1c0.6,0.5,1.2,1,1.7,1.5c1.9,1.8,1.8,4.9,0.4,6.7
		c-1.1,1.5-2.5,2.4-4.3,2.8c-2.2,0.6-4.4,0.6-6.6,0c-0.8-0.2-1.5-0.6-2.2-1.2c-2.2-1.8-2.2-4.8-0.1-6.6c1.3-1.2,3-1.8,4.7-2
		c0.9-0.2,1.8-0.2,2.7-0.3c-0.2-0.3-0.3-0.6-0.5-0.8c-0.5-0.8-0.6-1.6-0.2-2.4c0.1-0.3,0.1-0.4-0.3-0.4c-0.7,0-1.4,0-2.1-0.1
		c-3.3-0.8-5.1-4.4-3.6-7.6c1-2.2,2.8-3.4,5.2-3.8c1.4-0.2,2.8-0.2,4.3-0.2s3,0,4.5,0C47.7,32.2,47.7,32.2,47.7,32.2z M40.1,56.5
		c0.5,0,1,0,1.5-0.1c0.3-0.1,0.7-0.2,1-0.3c2.7-1,3.3-4,1.2-6c-0.6-0.6-1.3-1.1-2-1.6c-0.2-0.1-0.4-0.2-0.7-0.3
		c-1.5,0-3,0.2-4.4,0.8c-2.7,1.1-3.1,4.3-0.8,6.1C37,56.2,38.5,56.5,40.1,56.5z M36,37c0,0.5,0.1,1.1,0.2,1.6c0.4,1.4,1,2.7,2.2,3.7
		c1.4,1.1,4.2,0.7,4.6-1.6c0.2-0.9,0.1-1.8-0.1-2.7c-0.3-1.4-0.7-2.8-1.8-3.8c-1.2-1.2-3.2-1.2-4.3,0.1C36.2,35,36,36,36,37z"/>
	<path fill="#FFFFFF" d="M56.6,44.8c-0.5,0-1,0-1.4,0c-0.3,0-0.3,0.1-0.3,0.4c0,0.9,0,1.9,0,2.8c0,0.3-0.1,0.4-0.4,0.4
		c-0.4,0-0.8,0-1.3,0c-0.3,0-0.4-0.1-0.4-0.4c0-0.9,0-1.8,0-2.7c0-0.4-0.1-0.5-0.5-0.5c-0.9,0-1.7,0-2.6,0c-0.4,0-0.5-0.1-0.4-0.5
		c0-0.4,0-0.8,0-1.2c0-0.3,0.1-0.4,0.4-0.4c0.9,0,1.8,0,2.7,0c0.4,0,0.5-0.1,0.4-0.5c0-0.9,0-1.9,0-2.8c0-0.3,0.1-0.4,0.3-0.3
		c0.4,0,0.9,0,1.3,0c0.3,0,0.4,0.1,0.4,0.4c0,0.9,0,1.9,0,2.8c0,0.3,0.1,0.4,0.4,0.4c0.9,0,1.9,0,2.8,0c0.3,0,0.4,0.1,0.4,0.4
		c0,0.4,0,0.9,0,1.4c0,0.3-0.1,0.3-0.4,0.3C57.6,44.8,57.1,44.8,56.6,44.8z"/>
</g>
</svg>
