<?xml version="1.0" encoding="utf-8"?>
<!-- Generator: Adobe Illustrator 15.0.0, SVG Export Plug-In  -->
<!DOCTYPE svg PUBLIC "-//W3C//DTD SVG 1.1//EN" "http://www.w3.org/Graphics/SVG/1.1/DTD/svg11.dtd" [
	<!ENTITY ns_flows "http://ns.adobe.com/Flows/1.0/">
]>
<svg version="1.1"
	 xmlns="http://www.w3.org/2000/svg" xmlns:xlink="http://www.w3.org/1999/xlink" xmlns:a="http://ns.adobe.com/AdobeSVGViewerExtensions/3.0/"
	 x="0px" y="0px" width="22px" height="21px" viewBox="0 0 22 21" overflow="visible" enable-background="new 0 0 22 21"
	 xml:space="preserve">
<defs>
</defs>
<path fill="#FFFFFF" d="M20.79,0H1.21C0.54,0,0,0.26,0,0.9v18.94C0,20.48,0.54,21,1.21,21H12v-8H9v-3h3V7.51
	c0-2.71,2.28-4.61,4.81-4.61c1.21,0,1.89,0.13,2.19,0.17V6h-2.26C15.36,6,15,6.65,15,7.57V10h4.01l-0.63,3H15v8h5.92
	c0.67,0,1.08-0.52,1.08-1.16V1.16C22,0.52,21.46,0,20.79,0z"/>
</svg>
