<?xml version="1.0" encoding="utf-8"?>
<!-- Generator: Adobe Illustrator 16.0.4, SVG Export Plug-In . SVG Version: 6.00 Build 0)  -->
<!DOCTYPE svg PUBLIC "-//W3C//DTD SVG 1.1//EN" "http://www.w3.org/Graphics/SVG/1.1/DTD/svg11.dtd">
<svg version="1.1" id="Layer_1" xmlns="http://www.w3.org/2000/svg" xmlns:xlink="http://www.w3.org/1999/xlink" x="0px" y="0px"
	 width="45px" height="45px" viewBox="0 0 45 45" enable-background="new 0 0 45 45" xml:space="preserve">
<g>
	<path fill="#FDFDFD" d="M22.5,36C15,36,9,30,9,22.6c0-7.3,6-13.3,13.2-13.4C29,9,35.8,14.5,35.8,22.5C35.9,29.9,29.8,35.9,22.5,36z
		 M22.4,35.3c7,0,12.8-5.7,12.8-12.6c0-7.2-5.7-12.9-12.7-12.9c-7.1,0-12.8,5.7-12.8,12.7C9.6,29.6,15.4,35.3,22.4,35.3z"/>
	<path fill="#FDFDFD" d="M19.6,29.6c-1.4-4.2-2.8-8.3-4.2-12.4c0.3-0.1,0.5-0.1,0.8-0.1c0.7-0.1,0.9-0.2,0.9-0.5
		c0-0.4-0.3-0.5-1-0.4c-1.1,0.1-2.1,0.1-3.2,0.1c0.5-1.8,4.2-4.4,7.2-5c3.9-0.8,7.7,0.5,10,2.8c-0.2,0-0.4,0.1-0.6,0.1
		c-1,0.3-1.6,1.5-1.3,2.6c0.2,0.7,0.6,1.2,0.9,1.8c0.7,1.2,1.2,2.4,1,3.8c-0.1,0.6-0.2,1.3-0.4,1.9c-0.5,1.6-1,3.2-1.4,4.7
		c0,0.1,0,0.2-0.2,0.3c-0.6-1.7-1.1-3.3-1.7-5c-0.8-2.3-1.5-4.6-2.3-6.9C24,17.1,24,17,24.4,17c0.3,0,0.6,0,0.9-0.1
		c0.3,0,0.5-0.2,0.5-0.5c0-0.3-0.3-0.4-0.6-0.4c-0.8,0-1.7,0.1-2.5,0.1c-1,0-2,0-3.1-0.1c-0.2,0-0.4-0.1-0.6,0s-0.3,0.2-0.3,0.5
		c0,0.2,0.1,0.4,0.3,0.4s0.3,0.1,0.5,0.1c0.7-0.1,1,0.2,1.2,0.9c0.4,1.3,0.9,2.5,1.4,3.8c0.1,0.2,0.1,0.3,0.1,0.5
		C21.2,24.7,20.4,27.1,19.6,29.6z"/>
	<path fill="#FDFDFD" d="M22.6,23.5c0.9,2.4,1.7,4.7,2.6,7c0.3,0.9,0.6,1.7,0.9,2.6c0.1,0.2,0,0.3-0.2,0.4c-2.2,0.7-4.3,0.7-6.5,0.2
		c-0.4-0.1-0.2-0.3-0.1-0.5c0.9-2.5,1.7-5.1,2.6-7.6C22.1,25,22.4,24.3,22.6,23.5z"/>
	<path fill="#FDFDFD" d="M17.3,32.8c-5.6-2.5-8-9.6-5.4-14.9C12.1,18.4,17.3,32.5,17.3,32.8z"/>
	<path fill="#FDFDFD" d="M28.3,32.5c0-0.3,0.1-0.4,0.1-0.6c1.2-3.5,2.4-6.9,3.6-10.4c0.4-1.1,0.6-2.3,0.6-3.5c0-0.2-0.2-0.5,0-0.7
		c1,0.9,1.7,4.8,1.2,7.4C33.1,28,31.2,30.6,28.3,32.5z"/>
</g>
</svg>
