<?xml version="1.0" encoding="utf-8"?>
<!-- Generator: Adobe Illustrator 16.0.4, SVG Export Plug-In . SVG Version: 6.00 Build 0)  -->
<!DOCTYPE svg PUBLIC "-//W3C//DTD SVG 1.1//EN" "http://www.w3.org/Graphics/SVG/1.1/DTD/svg11.dtd">
<svg version="1.1" id="Layer_1" xmlns="http://www.w3.org/2000/svg" xmlns:xlink="http://www.w3.org/1999/xlink" x="0px" y="0px"
	 width="45.1px" height="45px" viewBox="37.4 37.5 45.1 45" enable-background="new 37.4 37.5 45.1 45" xml:space="preserve">
<g>
	<path fill="#FDFDFD" d="M55.1,63.5c0-1.8,0-3.5,0-5.3c0-0.5-0.1-0.6-0.6-0.5c-0.9,0-1.7,0-2.5,0c-0.3,0-0.4-0.1-0.4-0.4
		c0-0.9,0-1.8,0-2.7c0-0.3,0.1-0.5,0.4-0.6c1.9-0.9,3.4-2.2,4.3-4c0.5-1,0.8-2,0.8-3.1c0-0.4,0.1-0.5,0.5-0.5c0.9,0,1.7,0,2.6,0
		c0.4,0,0.5,0.1,0.5,0.5c0,2,0,4.1,0,6.1c0,0.4,0.1,0.5,0.5,0.5c2,0,4,0,6.1,0c0.4,0,0.4,0.1,0.4,0.5c0,1.1,0,2.2,0,3.3
		c0,0.4-0.1,0.5-0.5,0.5c-2,0-4,0-6,0c-0.3,0-0.5,0.1-0.5,0.5c0,2.6,0,5.2,0,7.8c0,0.7,0.1,1.3,0.5,1.9c0.6,1,1.4,1.4,2.5,1.4
		c1.5,0.1,2.8-0.4,4.2-0.9c0.5-0.2,0.5-0.2,0.5,0.3c0,1.1,0,2.3,0,3.4c0,0.2,0,0.3-0.2,0.4c-2.9,0.8-5.8,1.2-8.8,0.7
		c-0.8-0.2-1.6-0.4-2.2-0.9c-1.3-0.8-2-2.1-2-3.6C55.1,67,55.1,65.3,55.1,63.5L55.1,63.5z"/>
</g>
</svg>
