<?xml version="1.0" encoding="utf-8"?>
<!-- Generator: Adobe Illustrator 15.0.0, SVG Export Plug-In  -->
<!DOCTYPE svg PUBLIC "-//W3C//DTD SVG 1.1//EN" "http://www.w3.org/Graphics/SVG/1.1/DTD/svg11.dtd" [
	<!ENTITY ns_flows "http://ns.adobe.com/Flows/1.0/">
]>
<svg version="1.1"
	 xmlns="http://www.w3.org/2000/svg" xmlns:xlink="http://www.w3.org/1999/xlink" xmlns:a="http://ns.adobe.com/AdobeSVGViewerExtensions/3.0/"
	 x="0px" y="0px" width="31px" height="25px" viewBox="-0.65 -0.39 31 25"
	 overflow="visible" enable-background="new -0.65 -0.39 31 25" xml:space="preserve">
<defs>
</defs>
<path fill="#FFFFFF" d="M30,2.84c-1.11,0.49-2.29,0.81-3.54,0.96c1.27-0.75,2.25-1.94,2.71-3.35c-1.19,0.69-2.51,1.19-3.91,1.47
	C24.14,0.74,22.54,0,20.77,0c-3.4,0-6.16,2.72-6.16,6.06c0,0.48,0.06,0.94,0.16,1.38C9.66,7.19,5.12,4.78,2.09,1.11
	c-0.53,0.9-0.84,1.94-0.84,3.05c0,2.1,1.09,3.95,2.74,5.04C2.98,9.17,2.03,8.9,1.2,8.44v0.08c0,2.94,2.13,5.38,4.94,5.94
	c-0.52,0.14-1.06,0.21-1.62,0.21c-0.4,0-0.78-0.04-1.16-0.11c0.78,2.41,3.06,4.16,5.75,4.21c-2.11,1.63-4.76,2.6-7.64,2.6
	c-0.5,0-0.99-0.03-1.47-0.09C2.72,23,5.96,24,9.43,24c11.32,0,17.52-9.23,17.52-17.24c0-0.26-0.01-0.52-0.02-0.78
	C28.13,5.13,29.17,4.06,30,2.84z"/>
</svg>
