<?xml version="1.0" encoding="utf-8"?>
<!-- Generator: Adobe Illustrator 16.0.4, SVG Export Plug-In . SVG Version: 6.00 Build 0)  -->
<!DOCTYPE svg PUBLIC "-//W3C//DTD SVG 1.1//EN" "http://www.w3.org/Graphics/SVG/1.1/DTD/svg11.dtd">
<svg version="1.1" id="Layer_1" xmlns="http://www.w3.org/2000/svg" xmlns:xlink="http://www.w3.org/1999/xlink" x="0px" y="0px"
	 width="45px" height="45px" viewBox="0 0 45 45" enable-background="new 0 0 45 45" xml:space="preserve">
<path fill="#FFFFFF" d="M16.86,30.05c0,1.62-1.31,2.92-2.93,2.92c-1.62,0-2.93-1.3-2.93-2.92c0-1.61,1.31-2.92,2.93-2.92
	C15.55,27.13,16.86,28.439,16.86,30.05z M11.01,15.22c9.79,0,17.76,7.97,17.76,17.78H33c0-12.13-9.859-22-21.99-22V15.22z M11,22.69
	c2.75,0,5.33,1.07,7.27,3.01c1.95,1.95,3.02,4.54,3.02,7.29h4.229c0-8-6.51-14.521-14.52-14.521V22.69z"/>
</svg>
