<?xml version="1.0" encoding="utf-8"?>
<!-- Generator: Adobe Illustrator 16.0.4, SVG Export Plug-In . SVG Version: 6.00 Build 0)  -->
<!DOCTYPE svg PUBLIC "-//W3C//DTD SVG 1.1//EN" "http://www.w3.org/Graphics/SVG/1.1/DTD/svg11.dtd">
<svg version="1.1" id="Layer_1" xmlns="http://www.w3.org/2000/svg" xmlns:xlink="http://www.w3.org/1999/xlink" x="0px" y="0px"
	 width="29.6px" height="29.7px" viewBox="0 0 29.6 29.7" enable-background="new 0 0 29.6 29.7" xml:space="preserve">
<g>
	<g>
		<path fill="#3F729B" d="M26.8,29.8c-8,0-16,0-24,0c0-0.1-0.1-0.1-0.2-0.1c-1.3-0.4-2.2-1.2-2.6-2.6c0-0.1,0-0.2-0.1-0.2
			c0-8,0-16,0-24c0.1,0,0.1-0.1,0.1-0.2c0.4-1.4,1.3-2.2,2.6-2.5c0.1,0,0.1,0,0.2-0.1c8,0,15.9,0,23.9,0c0,0.1,0.1,0,0.1,0.1
			c1.4,0.3,2.3,1.2,2.7,2.7c0,0.1,0,0.1,0.1,0.1c0,8,0,16,0,24c-0.1,0-0.1,0.2-0.1,0.2c-0.4,1.4-1.3,2.2-2.6,2.5
			C26.9,29.7,26.8,29.7,26.8,29.8z M14.9,26.3c3.4,0,6.8,0,10.1,0c0.8,0,1.3-0.5,1.3-1.3c0-1.4,0-2.8,0-4.2c0-2.6,0-5.3,0-7.9
			c0-0.2,0-0.3-0.3-0.3c-0.7,0-1.4,0-2.1,0c-0.2,0-0.3,0.1-0.2,0.3c0.3,1.2,0.3,2.4,0.1,3.6c-0.9,5-5.8,8.4-10.8,7.4
			C8,22.8,4.9,18,6,12.9c0-0.2,0-0.3-0.2-0.3c-0.6,0-1.3,0-1.9,0c-0.3,0-0.4,0-0.4,0.4c0,4,0,8,0,12c0,0.9,0.4,1.3,1.4,1.3
			C8.1,26.3,11.5,26.3,14.9,26.3z M14.9,9.2c-3.1,0-5.7,2.5-5.7,5.7c0,3.2,2.5,5.7,5.7,5.7c3.1,0,5.7-2.5,5.7-5.7
			C20.6,11.8,18,9.2,14.9,9.2z M23.4,9.2c0.5,0,1.1,0,1.7,0c0.8,0,1.2-0.5,1.2-1.2c0-1.1,0-2.1,0-3.2c0-0.8-0.5-1.3-1.3-1.3
			c-1.1,0-2.1,0-3.2,0c-0.8,0-1.3,0.5-1.3,1.2c0,1.1,0,2.1,0,3.2c0,0.8,0.5,1.2,1.2,1.2C22.3,9.2,22.9,9.2,23.4,9.2z"/>
		<path fill-rule="evenodd" clip-rule="evenodd" fill="#FDFDFE" d="M26.8,29.8c0-0.1,0.1-0.1,0.2-0.1c1.4-0.3,2.3-1.2,2.6-2.5
			c0-0.1,0-0.2,0.1-0.2c0,0.9,0,1.8,0,2.7c0,0.1,0,0.2-0.2,0.2C28.6,29.8,27.7,29.8,26.8,29.8z"/>
		<path fill-rule="evenodd" clip-rule="evenodd" fill="#FDFDFE" d="M29.7,3c-0.1,0-0.1-0.1-0.1-0.1c-0.3-1.4-1.2-2.3-2.7-2.7
			c-0.1,0-0.1,0-0.1-0.1c0.9,0,1.8,0,2.7,0c0.1,0,0.2,0,0.2,0.2C29.7,1.1,29.7,2,29.7,3z"/>
		<path fill-rule="evenodd" clip-rule="evenodd" fill="#FDFDFE" d="M0,26.9c0.1,0,0.1,0.1,0.1,0.2c0.4,1.3,1.2,2.2,2.6,2.6
			c0.1,0,0.2,0,0.2,0.1c-0.9,0-1.8,0-2.7,0c-0.1,0-0.2,0-0.2-0.2C0,28.7,0,27.8,0,26.9z"/>
		<path fill-rule="evenodd" clip-rule="evenodd" fill="#FDFDFE" d="M2.9,0.1c0,0.1-0.1,0.1-0.2,0.1C1.4,0.5,0.5,1.3,0.1,2.7
			c0,0.1,0,0.2-0.1,0.2C0,2,0,1.1,0,0.2c0-0.1,0-0.2,0.2-0.2C1.1,0.1,2,0.1,2.9,0.1z"/>
		<path fill-rule="evenodd" clip-rule="evenodd" fill="#FDFDFE" d="M14.9,26.3c-3.4,0-6.7,0-10.1,0c-0.9,0-1.4-0.4-1.4-1.3
			c0-4,0-8,0-12c0-0.3,0.1-0.4,0.4-0.4c0.6,0,1.3,0,1.9,0c0.2,0,0.3,0,0.2,0.3c-1.1,5.1,2,9.9,7.1,11c5,1.1,10-2.3,10.8-7.4
			c0.2-1.2,0.2-2.4-0.1-3.6c0-0.2,0-0.3,0.2-0.3c0.7,0,1.4,0,2.1,0c0.2,0,0.3,0.1,0.3,0.3c0,2.6,0,5.3,0,7.9c0,1.4,0,2.8,0,4.2
			c0,0.8-0.5,1.3-1.3,1.3C21.6,26.3,18.2,26.3,14.9,26.3z"/>
		<path fill-rule="evenodd" clip-rule="evenodd" fill="#FDFDFE" d="M14.9,9.2c3.2,0,5.7,2.6,5.7,5.7c0,3.2-2.6,5.7-5.7,5.7
			c-3.2,0-5.7-2.6-5.7-5.7C9.2,11.7,11.7,9.2,14.9,9.2z"/>
		<path fill-rule="evenodd" clip-rule="evenodd" fill="#FDFDFE" d="M23.4,9.2c-0.5,0-1,0-1.6,0c-0.8,0-1.2-0.5-1.2-1.2
			c0-1.1,0-2.1,0-3.2c0-0.8,0.5-1.2,1.3-1.2c1.1,0,2.1,0,3.2,0c0.8,0,1.3,0.5,1.3,1.3c0,1.1,0,2.1,0,3.2c0,0.8-0.5,1.2-1.2,1.2
			C24.5,9.2,23.9,9.2,23.4,9.2z"/>
	</g>
</g>
</svg>
