<?xml version="1.0" encoding="utf-8"?>
<!-- Generator: Adobe Illustrator 16.0.4, SVG Export Plug-In . SVG Version: 6.00 Build 0)  -->
<!DOCTYPE svg PUBLIC "-//W3C//DTD SVG 1.1//EN" "http://www.w3.org/Graphics/SVG/1.1/DTD/svg11.dtd">
<svg version="1.1" id="Layer_1" xmlns="http://www.w3.org/2000/svg" xmlns:xlink="http://www.w3.org/1999/xlink" x="0px" y="0px"
	 width="45px" height="45.1px" viewBox="0 0 45 45.1" enable-background="new 0 0 45 45.1" xml:space="preserve">
<g>
	<path fill="#FFFFFF" d="M22.7,33.5c-3.1-0.1-5.9-0.7-8.4-2.4c-1.6-1.1-2.9-2.6-3.3-4.5c-0.1-0.6-0.2-1.2-0.1-1.8
		c0-0.2,0-0.3-0.2-0.4c-1.4-0.9-2-2.4-1.5-3.8s2.1-2.4,3.7-2.2c0.7,0.1,1.3,0.3,1.8,0.7c0.2,0.1,0.3,0.2,0.5,0
		c2-1.1,4.1-1.6,6.4-1.7c0.3,0,0.4-0.1,0.4-0.4c0-0.8,0.1-1.6,0.4-2.4c0.6-1.6,1.9-2.4,3.7-2.3c0.7,0.1,1.3,0.2,2,0.4
		c0.3,0.1,0.5,0.1,0.7-0.2c1.2-1.5,3.5-1.6,4.8-0.1c0.8,0.9,1,1.9,0.5,3.1c-0.5,1.1-1.3,1.7-2.5,1.9c-1.7,0.2-3.1-0.7-3.4-2.3
		c-0.1-0.8-0.6-0.9-1.1-1.1c-0.4-0.1-0.9-0.2-1.4-0.2c-1,0-1.8,0.5-2.1,1.5c-0.2,0.6-0.2,1.3-0.3,1.9c0,0.2,0.1,0.3,0.3,0.3
		c1.9,0.1,3.7,0.5,5.4,1.3c0.7,0.3,1.2,0.4,1.9,0c2.1-1.1,4.6,0.1,5,2.4c0.2,1.2-0.4,2.5-1.5,3.1c-0.3,0.2-0.3,0.3-0.3,0.6
		c0.2,2.3-0.8,4.1-2.5,5.5c-2.1,1.8-4.6,2.6-7.3,2.9C23.8,33.5,23.1,33.5,22.7,33.5z M22.5,32.1c0.8,0,1.7-0.1,2.5-0.2
		c2.2-0.4,4.3-1.1,6-2.7c2.4-2.2,2.5-5.2,0.2-7.4c-0.8-0.8-1.7-1.4-2.7-1.9c-3.1-1.4-6.4-1.6-9.7-0.7c-2,0.5-3.8,1.4-5.1,2.9
		c-1.3,1.5-1.8,3.2-1,5.1c0.5,1.2,1.3,2.1,2.4,2.8C17.2,31.5,19.8,32.1,22.5,32.1z M31.2,12.8c-0.9,0-1.7,0.8-1.7,1.6
		c0,0.9,0.8,1.6,1.7,1.6c0.9,0,1.7-0.8,1.6-1.7C32.9,13.5,32.1,12.8,31.2,12.8z M13.7,20.1c-0.4-0.2-0.7-0.4-1.1-0.4
		c-0.9,0-1.6,0.3-2,1.1c-0.4,0.7-0.3,1.3,0.2,1.9c0.4,0.5,0.4,0.5,0.7-0.1c0.1-0.1,0.1-0.2,0.2-0.3C12.2,21.5,12.9,20.8,13.7,20.1z
		 M32.4,19.8c-0.2,0-0.5,0.1-0.7,0.2c-0.3,0.1-0.3,0.2-0.1,0.4c0.8,0.7,1.5,1.5,2,2.5c0.2,0.4,0.3,0.3,0.5,0.1
		c0.5-0.5,0.7-1.3,0.4-2C34.1,20.2,33.3,19.7,32.4,19.8z"/>
	<path fill="#FFFFFF" d="M22.3,30.4c-1.5,0-3-0.3-4.3-1.2c-0.5-0.3-0.6-0.7-0.4-1c0.2-0.4,0.7-0.4,1.1-0.1c2.1,1.2,4.2,1.2,6.4,0.5
		c0.4-0.1,0.8-0.3,1.1-0.5c0.5-0.3,0.9-0.2,1.1,0.2c0.2,0.4,0.1,0.8-0.5,1C25.5,30,24,30.4,22.3,30.4z"/>
	<path fill="#FFFFFF" d="M18.3,22.5c0.9,0,1.5,0.7,1.5,1.6c0,0.8-0.7,1.5-1.6,1.5c-0.8,0-1.5-0.7-1.5-1.5
		C16.7,23.1,17.4,22.5,18.3,22.5z"/>
	<path fill="#FFFFFF" d="M26.7,22.5c0.9,0,1.5,0.7,1.5,1.5s-0.7,1.5-1.5,1.5c-0.9,0-1.5-0.7-1.5-1.5C25.2,23.1,25.9,22.5,26.7,22.5z
		"/>
</g>
</svg>
