<?xml version="1.0" encoding="utf-8"?>
<!-- Generator: Adobe Illustrator 15.0.0, SVG Export Plug-In  -->
<!DOCTYPE svg PUBLIC "-//W3C//DTD SVG 1.1//EN" "http://www.w3.org/Graphics/SVG/1.1/DTD/svg11.dtd" [
	<!ENTITY ns_flows "http://ns.adobe.com/Flows/1.0/">
]>
<svg version="1.1"
	 xmlns="http://www.w3.org/2000/svg" xmlns:xlink="http://www.w3.org/1999/xlink" xmlns:a="http://ns.adobe.com/AdobeSVGViewerExtensions/3.0/"
	 x="0px" y="0px" width="42px" height="30px" viewBox="0 0 42 30" overflow="visible" enable-background="new 0 0 42 30"
	 xml:space="preserve">
<defs>
</defs>
<path fill="#D92632" d="M41.581,6.472c0,0-0.411-2.939-1.67-4.234c-1.597-1.699-3.388-1.707-4.208-1.807C29.825,0,21.01,0,21.01,0
	h-0.02c0,0-8.815,0-14.693,0.432c-0.821,0.1-2.611,0.108-4.208,1.807C0.83,3.533,0.42,6.472,0.42,6.472S0,9.924,0,13.375v3.236
	c0,3.451,0.42,6.903,0.42,6.903s0.41,2.939,1.669,4.233c1.597,1.699,3.696,1.646,4.63,1.823C10.081,29.898,21,30,21,30
	s8.825-0.014,14.703-0.444c0.82-0.1,2.611-0.108,4.208-1.808c1.259-1.294,1.67-4.233,1.67-4.233S42,20.062,42,16.611v-3.236
	C42,9.924,41.581,6.472,41.581,6.472 M16.664,20.532L16.662,8.548l11.348,6.013L16.664,20.532z"/>
</svg>
