<?xml version="1.0" encoding="utf-8"?>
<!-- Generator: Adobe Illustrator 16.0.4, SVG Export Plug-In . SVG Version: 6.00 Build 0)  -->
<!DOCTYPE svg PUBLIC "-//W3C//DTD SVG 1.1//EN" "http://www.w3.org/Graphics/SVG/1.1/DTD/svg11.dtd">
<svg version="1.1" id="Layer_1" xmlns="http://www.w3.org/2000/svg" xmlns:xlink="http://www.w3.org/1999/xlink" x="0px" y="0px"
	 width="30px" height="30px" viewBox="0 0 30 30" enable-background="new 0 0 30 30" xml:space="preserve">
<g>
	<g>
		<path fill="#CE3D28" d="M28.8,30.1c-9.2,0-18.4,0-27.6,0c-0.2-0.2-0.5-0.2-0.7-0.4c-0.2-0.2-0.3-0.5-0.5-0.7c0-9.2,0-18.4,0-27.7
			c0.2-0.6,0.6-1,1.2-1.2c9.2,0,18.4,0,27.5,0c0.6,0.2,1,0.6,1.2,1.2c0,9.2,0,18.4,0,27.6C29.8,29.5,29.4,29.9,28.8,30.1z
			 M12.4,16.9c-0.2,0-0.3,0-0.5,0c-0.8,0.1-1.7,0.2-2.5,0.4c-1.1,0.3-2.2,0.7-3.1,1.6c-1.4,1.4-1.4,3.5,0,4.8c0.5,0.5,1.1,0.8,1.7,1
			c1.7,0.5,3.4,0.5,5.1,0.2c1.4-0.3,2.6-0.9,3.7-1.9c1.5-1.5,1.7-3.9,0.1-5.5c-0.7-0.7-1.4-1.2-2.2-1.8c-0.8-0.6-0.8-1.3-0.2-2
			c0.3-0.4,0.7-0.6,1.1-1c2-1.7,1.8-4.7,0-6.2c-0.1-0.1-0.2-0.2-0.3-0.3c0.5,0,0.8,0,1.2,0c0.1,0,0.2,0,0.3,0c0.5-0.3,1.1-0.7,1.7-1
			c-0.1,0-0.1,0-0.2,0c-2,0-4,0-5.9,0c-0.9,0-1.7,0.1-2.5,0.4c-2.6,0.8-3.5,2.8-3.3,5.1c0.2,1.9,1.8,3.5,3.8,3.6c0.5,0,0.9,0,1.4,0
			C11.5,15.4,11.5,15.5,12.4,16.9z M23.9,15.2c0.4,0,0.7,0,1.1,0c0.2,0,0.2-0.1,0.2-0.2c0-0.3,0-0.6,0-0.8c0-0.2,0-0.2-0.2-0.2
			c-0.7,0-1.4,0-2.2,0c-0.2,0-0.2-0.1-0.2-0.2c0-0.7,0-1.4,0-2.2c0-0.2,0-0.2-0.2-0.2c-0.3,0-0.6,0-0.9,0c-0.2,0-0.2,0.1-0.2,0.2
			c0,0.7,0,1.4,0,2.1c0,0.2-0.1,0.3-0.3,0.3c-0.7,0-1.4,0-2.1,0c-0.2,0-0.3,0-0.3,0.2c0,0.3,0,0.6,0,0.8c0,0.2,0.1,0.2,0.2,0.2
			c0.7,0,1.4,0,2.1,0c0.2,0,0.3,0.1,0.3,0.3c0,0.7,0,1.4,0,2.1c0,0.2,0.1,0.2,0.2,0.2c0.3,0,0.6,0,0.9,0c0.2,0,0.3-0.1,0.3-0.3
			c0-0.7,0-1.4,0-2.1c0-0.2,0-0.3,0.3-0.3C23.2,15.3,23.6,15.2,23.9,15.2z"/>
		<path fill-rule="evenodd" clip-rule="evenodd" fill="#FEFCFC" d="M30.1,1.3c-0.2-0.6-0.6-1-1.2-1.2c0.4,0,0.7,0,1.1,0
			c0.1,0,0.1,0,0.1,0.1C30.1,0.5,30.1,0.9,30.1,1.3z"/>
		<path fill-rule="evenodd" clip-rule="evenodd" fill="#FEFCFC" d="M1.3,0.1c-0.6,0.2-1,0.6-1.2,1.2c0-0.4,0-0.7,0-1.1
			c0-0.1,0-0.1,0.1-0.1C0.5,0.1,0.9,0.1,1.3,0.1z"/>
		<path fill-rule="evenodd" clip-rule="evenodd" fill="#FEFCFC" d="M28.8,30.1c0.6-0.2,1-0.6,1.2-1.2c0,0.4,0,0.7,0,1.1
			c0,0.1,0,0.1-0.1,0.1C29.6,30.1,29.2,30.1,28.8,30.1z"/>
		<path fill-rule="evenodd" clip-rule="evenodd" fill="#FEFCFC" d="M0.1,28.9c0.2,0.2,0.3,0.5,0.5,0.7c0.2,0.2,0.5,0.3,0.7,0.4
			c-0.4,0-0.7,0-1.1,0c-0.1,0-0.1,0-0.1-0.1C0.1,29.6,0.1,29.2,0.1,28.9z"/>
		<path fill-rule="evenodd" clip-rule="evenodd" fill="#FEFCFC" d="M12.4,16.9c-0.9-1.4-0.9-1.5-0.5-2.8c-0.5,0-0.9,0-1.4,0
			c-2-0.2-3.7-1.7-3.8-3.6C6.5,8.3,7.4,6.3,10,5.4c0.8-0.3,1.7-0.4,2.5-0.4c2,0,4,0,5.9,0c0,0,0.1,0,0.2,0c-0.6,0.4-1.1,0.7-1.7,1
			c-0.1,0.1-0.2,0-0.3,0c-0.4,0-0.8,0-1.2,0c0.1,0.1,0.2,0.2,0.3,0.3c1.8,1.5,2,4.5,0,6.2c-0.4,0.3-0.8,0.6-1.1,1
			c-0.6,0.7-0.6,1.4,0.2,2c0.8,0.6,1.5,1.2,2.2,1.8c1.5,1.6,1.4,4-0.1,5.5c-1,1-2.3,1.6-3.7,1.9c-1.7,0.3-3.4,0.3-5.1-0.2
			c-0.6-0.2-1.2-0.5-1.7-1c-1.4-1.3-1.4-3.4,0-4.8c0.8-0.9,1.9-1.3,3.1-1.6c0.8-0.2,1.7-0.3,2.5-0.4C12.1,16.9,12.2,16.9,12.4,16.9z
			 M12.2,24c0.5,0,1,0,1.4-0.1c0.6-0.1,1.2-0.3,1.6-0.7c1.3-1,1.4-2.7,0.3-3.9c-0.6-0.6-1.2-1-1.9-1.5c-0.2-0.1-0.4-0.2-0.6-0.2
			c-1,0-1.9,0.1-2.8,0.4c-0.8,0.2-1.4,0.6-1.9,1.2c-0.9,1.1-0.7,2.8,0.6,3.8C9.8,23.7,11,23.9,12.2,24z M9,8.7
			c0,0.9,0.2,1.9,0.6,2.7c0.3,0.7,0.7,1.3,1.4,1.7c1.5,1,3.6,0,3.8-1.8c0.1-1-0.1-1.9-0.4-2.8c-0.3-0.8-0.7-1.5-1.4-2
			c-1.2-0.9-3.4-0.6-3.8,1.4C9,8.2,9,8.5,9,8.7z"/>
		<path fill-rule="evenodd" clip-rule="evenodd" fill="#FEFCFC" d="M23.9,15.2c-0.3,0-0.7,0-1,0c-0.3,0-0.3,0.1-0.3,0.3
			c0,0.7,0,1.4,0,2.1c0,0.2-0.1,0.3-0.3,0.3c-0.3,0-0.6,0-0.9,0c-0.2,0-0.2,0-0.2-0.2c0-0.7,0-1.4,0-2.1c0-0.2,0-0.3-0.3-0.3
			c-0.7,0-1.4,0-2.1,0c-0.2,0-0.2,0-0.2-0.2c0-0.3,0-0.6,0-0.8c0-0.2,0.1-0.2,0.3-0.2c0.7,0,1.4,0,2.1,0c0.2,0,0.3-0.1,0.3-0.3
			c0-0.7,0-1.4,0-2.1c0-0.2,0-0.3,0.2-0.2c0.3,0,0.6,0,0.9,0c0.2,0,0.2,0.1,0.2,0.2c0,0.7,0,1.4,0,2.2c0,0.2,0,0.2,0.2,0.2
			c0.7,0,1.4,0,2.2,0c0.2,0,0.3,0.1,0.2,0.2c0,0.3,0,0.6,0,0.8c0,0.2,0,0.2-0.2,0.2C24.7,15.2,24.3,15.2,23.9,15.2z"/>
		<path fill-rule="evenodd" clip-rule="evenodd" fill="#CE3D28" d="M12.2,24c-1.2,0-2.4-0.2-3.4-1c-1.3-1-1.5-2.6-0.6-3.8
			c0.5-0.6,1.2-1,1.9-1.2c0.9-0.3,1.9-0.4,2.8-0.4c0.2,0,0.4,0.1,0.6,0.2c0.6,0.5,1.3,0.9,1.9,1.5c1.1,1.2,1,2.9-0.3,3.9
			c-0.5,0.4-1,0.6-1.6,0.7C13.1,23.9,12.7,24,12.2,24z"/>
		<path fill-rule="evenodd" clip-rule="evenodd" fill="#CE3D28" d="M9,8.7c0-0.2,0-0.4,0.1-0.7c0.4-2,2.6-2.3,3.8-1.4
			c0.7,0.5,1.1,1.2,1.4,2c0.3,0.9,0.5,1.8,0.4,2.8c-0.2,1.8-2.2,2.8-3.8,1.8c-0.7-0.4-1.1-1-1.4-1.7C9.2,10.6,9,9.6,9,8.7z"/>
	</g>
</g>
</svg>
