<?xml version="1.0" encoding="utf-8"?>
<!-- Generator: Adobe Illustrator 15.0.0, SVG Export Plug-In  -->
<!DOCTYPE svg PUBLIC "-//W3C//DTD SVG 1.1//EN" "http://www.w3.org/Graphics/SVG/1.1/DTD/svg11.dtd" [
	<!ENTITY ns_flows "http://ns.adobe.com/Flows/1.0/">
]>
<svg version="1.1"
	 xmlns="http://www.w3.org/2000/svg" xmlns:xlink="http://www.w3.org/1999/xlink" xmlns:a="http://ns.adobe.com/AdobeSVGViewerExtensions/3.0/"
	 x="0px" y="0px" width="30px" height="32px" viewBox="-0.25 -0.88 30 32"
	 overflow="visible" enable-background="new -0.25 -0.88 30 32" xml:space="preserve">
<defs>
</defs>
<path fill-rule="evenodd" clip-rule="evenodd" d="M29.5,28.87c0,1-0.75,2-2,2c-1.5,0-8-7.25-8.25-7.5S19,22.62,19,22.12
	c0-1,0.5-1.75,1.75-1.75C22.25,20.37,29.5,27.37,29.5,28.87z"/>
<path fill-rule="evenodd" clip-rule="evenodd" d="M20.5,12.24c0,5.26-4,8-8.25,8c-5,0-8.25-4-8.25-8.24c0-4.5,3.75-8,8.25-8
	C17,4,20.5,7.74,20.5,12.24z M24.5,12c0,7.5-5.5,12.24-12.25,12.24C5,24.24,0,18.74,0,12C0,4.74,5.75,0,12.25,0
	C19.75,0,24.5,6,24.5,12z"/>
</svg>
