<?xml version="1.0" encoding="utf-8"?>
<!-- Generator: Adobe Illustrator 15.0.0, SVG Export Plug-In  -->
<!DOCTYPE svg PUBLIC "-//W3C//DTD SVG 1.1//EN" "http://www.w3.org/Graphics/SVG/1.1/DTD/svg11.dtd" [
	<!ENTITY ns_flows "http://ns.adobe.com/Flows/1.0/">
]>
<svg version="1.1"
	 xmlns="http://www.w3.org/2000/svg" xmlns:xlink="http://www.w3.org/1999/xlink" xmlns:a="http://ns.adobe.com/AdobeSVGViewerExtensions/3.0/"
	 x="0px" y="0px" width="37px" height="30px" viewBox="0 0 37 30" overflow="visible" enable-background="new 0 0 37 30"
	 xml:space="preserve">
<defs>
</defs>
<path fill="#5EA9DD" d="M37,3.549c-1.368,0.613-2.822,1.013-4.364,1.2c1.566-0.938,2.775-2.425,3.341-4.188
	c-1.467,0.862-3.094,1.487-4.821,1.837C29.774,0.924,27.8,0,25.617,0c-4.194,0-7.598,3.399-7.598,7.575
	c0,0.6,0.074,1.175,0.197,1.725C11.915,8.987,6.314,5.975,2.577,1.387C1.924,2.512,1.542,3.812,1.542,5.199
	c0,2.625,1.344,4.938,3.379,6.3c-1.246-0.037-2.417-0.375-3.44-0.95v0.1c0,3.675,2.626,6.726,6.092,7.426
	c-0.642,0.175-1.307,0.263-1.998,0.263c-0.492,0-0.962-0.051-1.431-0.139c0.962,3.012,3.774,5.199,7.092,5.263
	c-2.602,2.037-5.87,3.249-9.422,3.249c-0.616,0-1.222-0.037-1.813-0.111C3.355,28.75,7.35,30,11.631,30
	C25.592,30,33.24,18.462,33.24,8.449c0-0.325-0.014-0.65-0.025-0.975C34.695,6.412,35.977,5.075,37,3.549z"/>
</svg>
