<?xml version="1.0" encoding="utf-8"?>
<!-- Generator: Adobe Illustrator 16.0.4, SVG Export Plug-In . SVG Version: 6.00 Build 0)  -->
<!DOCTYPE svg PUBLIC "-//W3C//DTD SVG 1.1//EN" "http://www.w3.org/Graphics/SVG/1.1/DTD/svg11.dtd">
<svg version="1.1" id="Layer_1" xmlns="http://www.w3.org/2000/svg" xmlns:xlink="http://www.w3.org/1999/xlink" x="0px" y="0px"
	 width="30px" height="30px" viewBox="0.5 0 30 30" enable-background="new 0.5 0 30 30" xml:space="preserve">
<g>
	<path fill="#FFFFFF" d="M30.5,15c0,8.3-6.7,15-15,15c-8.3,0-15-6.7-15-15c0-8.3,6.7-15,15-15C23.8,0,30.5,6.7,30.5,15"/>
	<g>
		<path fill="#BD081C" d="M15.5,1.6C8.1,1.6,2.1,7.6,2.1,15c0,5.7,3.5,10.5,8.5,12.4c-0.1-1.1-0.2-2.7,0-3.8c0.2-1,1.6-6.6,1.6-6.6
			s-0.4-0.8-0.4-2c0-1.9,1.1-3.2,2.4-3.2c1.1,0,1.7,0.9,1.7,1.9c0,1.1-0.7,2.9-1.1,4.4c-0.3,1.3,0.7,2.4,2,2.4
			c2.4,0,4.2-2.5,4.2-6.1c0-3.2-2.3-5.4-5.6-5.4c-3.8,0-6,2.8-6,5.8c0,1.1,0.4,2.4,1,3c0.1,0.1,0.1,0.2,0.1,0.4
			c-0.1,0.4-0.3,1.3-0.4,1.5c-0.1,0.2-0.2,0.3-0.4,0.2C8,19.1,7,16.6,7,14.7c0-4.2,3.1-8.1,8.8-8.1c4.6,0,8.2,3.3,8.2,7.7
			c0,4.6-2.9,8.3-6.9,8.3c-1.4,0-2.6-0.7-3.1-1.5c0,0-0.7,2.5-0.8,3.2c-0.3,1.2-1.1,2.6-1.7,3.5c1.2,0.4,2.6,0.6,4,0.6
			c7.4,0,13.3-6,13.3-13.3C28.8,7.6,22.8,1.6,15.5,1.6z"/>
	</g>
</g>
</svg>
