<?xml version="1.0" encoding="utf-8"?>
<!-- Generator: Adobe Illustrator 16.0.4, SVG Export Plug-In . SVG Version: 6.00 Build 0)  -->
<!DOCTYPE svg PUBLIC "-//W3C//DTD SVG 1.1//EN" "http://www.w3.org/Graphics/SVG/1.1/DTD/svg11.dtd">
<svg version="1.1" id="Layer_1" xmlns="http://www.w3.org/2000/svg" xmlns:xlink="http://www.w3.org/1999/xlink" x="0px" y="0px"
	 width="45px" height="45px" viewBox="0 0 45 45" enable-background="new 0 0 45 45" xml:space="preserve">
<g>
	<path fill-rule="evenodd" clip-rule="evenodd" fill="#FFFFFF" d="M44.101,28.734c-2.201,1.019-4.542,1.609-6.87,2.241
		c-1.163,0.315-2.281,0.74-3.307,1.383c-0.523,0.329-1.016,0.697-1.356,1.228c-0.526,0.819-0.425,1.483,0.315,2.103
		c0.091,0.076,0.185,0.147,0.28,0.225c-1.057,0.78-3.503,0.236-4.229-2.044c-0.217,0.087-0.351,0.275-0.52,0.418
		c-1.469,1.237-3.09,2.166-5.016,2.475c-0.261,0.041-0.597,0.158-0.763-0.049c-0.125-0.155,0.171-0.372,0.26-0.57
		c0.298-0.669,0.454-1.361,0.402-2.099c-0.173-0.029-0.186,0.129-0.254,0.208c-0.957,1.111-2.131,1.873-3.562,2.226
		c-0.073,0.018-0.146,0.034-0.221,0.045c-0.66,0.094-0.683,0.061-0.474-0.575c0.134-0.407,0.232-0.823,0.198-1.313
		c-0.382,0.251-0.709,0.482-1.052,0.687c-0.833,0.493-1.718,0.854-2.682,0.991c-0.28,0.039-0.569,0.055-0.851,0.032
		c-0.666-0.056-0.715-0.146-0.516-0.762c0.102-0.317,0.163-0.641,0.071-0.973c-0.106-0.385-0.349-0.639-0.755-0.662
		c-0.425-0.024-0.713,0.204-0.853,0.598c-0.139,0.392-0.104,0.797-0.057,1.202c0.078,0.68-0.015,0.833-0.683,1.021
		c-0.224,0.062-0.186,0.195-0.178,0.338c0.034,0.591,0.351,1.033,0.844,1.469c-0.618,0.017-1.052-0.21-1.417-0.56
		c-1.133-1.086-1.42-2.421-1.096-3.918c0.079-0.367,0.202-0.725,0.395-1.049c0.185-0.31,0.058-0.38-0.24-0.397
		c-0.579-0.034-1.061,0.151-1.441,0.589c-0.227,0.26-0.43,0.542-0.674,0.784c-0.359,0.356-0.749,0.332-1.016-0.093
		c-0.187-0.298-0.301-0.197-0.459-0.014c-0.21,0.246-0.32,0.538-0.396,0.847c-0.049,0.195-0.056,0.409-0.218,0.563
		c-0.985-1.821-0.437-3.47,1.432-4.297c0.804-0.355,1.655-0.531,2.524-0.604c0.339-0.027,0.33-0.114,0.169-0.366
		c-0.42-0.657-0.948-1.068-1.784-0.934c-0.202,0.033-0.422,0.008-0.625-0.032c-0.422-0.083-0.807-0.489-0.749-0.886
		c0.078-0.534-0.206-0.425-0.501-0.356c-0.344,0.08-0.622,0.285-0.9,0.516c-0.03-0.866,0.926-1.778,1.881-1.812
		c0.729-0.025,1.38,0.241,2.004,0.583c0.78,0.427,1.474,0.975,2.131,1.57c0.074,0.067,0.144,0.196,0.254,0.146
		c0.146-0.066,0.06-0.212,0.04-0.316c-0.104-0.531-0.18-1.063-0.17-1.606c0.007-0.406,0.115-0.747,0.553-0.872
		c0.247-0.07,0.152-0.208,0.077-0.339c-0.19-0.328-0.497-0.55-0.79-0.804c1.14-0.289,2.481,0.812,2.484,2.033
		c0.001,0.433-0.071,0.865-0.119,1.297c-0.137,1.234,0.255,1.931,1.389,2.43c0.833,0.367,1.721,0.509,2.619,0.597
		c2.375,0.231,4.705,0.095,6.921-0.885c0.447-0.197,0.868-0.455,1.377-0.726c-0.242,0.735-0.555,1.358-0.944,1.938
		c-0.198,0.296-0.165,0.383,0.187,0.438c3.057,0.477,5.366-0.604,6.93-3.286c0.188-0.322,0.304-0.395,0.667-0.198
		c1.185,0.642,2.439,0.625,3.713,0.275c0.292-0.08,0.27-0.178,0.123-0.394c-0.684-1.005-0.9-2.138-0.886-3.333
		c0.004-0.337,0.055-0.455,0.43-0.293c1.271,0.553,2.57,0.686,3.882,0.115c0.096-0.042,0.191-0.085,0.284-0.133
		c0.023-0.013,0.035-0.046,0.06-0.079c-1.251-1.355-1.382-3.061-1.481-4.779c-0.017-0.291,0.136-0.351,0.37-0.383
		c1.544-0.214,3.087-0.435,4.629-0.655c0.268-0.038,0.532-0.087,0.798-0.131c0.1,0.041,0.22-0.078,0.308,0.042c0,3.18,0,6.36,0,9.54
		C44.647,28.355,44.4,28.606,44.101,28.734z"/>
	<path fill-rule="evenodd" clip-rule="evenodd" fill="#FDFDFE" d="M44.101,28.734c0.3-0.128,0.547-0.379,0.899-0.385
		c0,0.75,0,1.5,0,2.25c-0.733,0.126-1.307,0.555-1.875,0.992c0.292-0.887,0.694-1.735,0.934-2.641
		C44.077,28.88,44.087,28.807,44.101,28.734z"/>
	<path fill-rule="evenodd" clip-rule="evenodd" fill="#FFFFFF" d="M31.998,26.9c-0.305,0.706-0.635,1.358-1.061,1.956
		c-1.01,1.418-2.304,2.346-4.117,2.362c-0.572,0.006-0.571,0.001-0.338-0.499c0.268-0.573,0.474-1.166,0.568-1.793
		c0.045-0.296,0.062-0.591-0.018-0.926c-1.533,1.263-3.163,2.195-5.298,2.144c0.406-0.473,0.744-0.848,1.06-1.24
		c0.265-0.328,0.493-0.688,0.584-1.104c0.071-0.321,0.144-0.676-0.202-0.898c-0.334-0.215-0.635-0.049-0.91,0.152
		c-0.409,0.298-0.683,0.708-0.924,1.146c-0.106,0.191-0.157,0.418-0.346,0.594c-0.551-0.814-0.796-1.721-0.914-2.663
		c-0.228-1.82,0.052-3.557,0.958-5.168c0.132-0.236,0.091-0.317-0.151-0.411c-0.593-0.228-1.118-0.576-1.583-1.011
		c-0.287-0.269-0.533-0.569-0.676-0.942c-0.219-0.572-0.129-0.671,0.454-0.636c1.223,0.073,2.261-0.316,3.096-1.343
		c-1.633-0.254-2.501-1.207-2.802-2.812c0.523,0.104,0.965,0.221,1.416,0.276c1.437,0.177,2.619-0.303,3.546-1.421
		c0.188-0.227,0.192-0.326-0.126-0.399c-0.532-0.122-0.976-0.393-1.199-0.923c-0.115-0.273-0.125-0.462,0.255-0.602
		c1.259-0.463,1.935-1.505,2.471-2.657c0.171-0.369,0.255-0.765,0.327-1.165c0.097-0.538,0.424-0.698,0.911-0.448
		c0.471,0.24,0.729,0.651,0.874,1.146c0.127,0.433,0.403,0.504,0.725,0.164c0.417-0.441,0.486-0.996,0.364-1.556
		C28.869,5.888,28.91,5.83,29.242,5.91c1.382,0.333,2.4,1.051,2.756,2.567c0.187-0.213,0.337-0.394,0.497-0.565
		c0.69-0.74,1.52-1.204,2.543-1.296c0.332-0.03,0.54-0.022,0.347,0.409c-0.166,0.37-0.228,0.775-0.199,1.187
		c0.039,0.567,0.366,0.905,0.936,0.964c0.717,0.075,1.333-0.299,1.602-0.973c0.037-0.093,0.073-0.187,0.112-0.285
		c0.851,0.58,1.08,1.919,0.614,3.404c0.524,0,1.056-0.015,1.587,0.003c1.05,0.036,1.294,0.448,0.722,1.32
		c-1.088,1.656-1.284,3.389-0.569,5.226c0.122,0.315-0.038,0.371-0.275,0.397c-0.524,0.059-1.02-0.062-1.474-0.309
		c-0.274-0.149-0.355-0.101-0.382,0.203c-0.177,2.02-0.189,4.018,0.739,5.896c0.167,0.338-0.121,0.281-0.249,0.294
		c-1.062,0.106-2.015-0.197-2.876-0.809c-0.45-0.319-0.461-0.328-0.639,0.2c-0.455,1.354-0.379,2.693,0.213,3.986
		c0.178,0.387,0.031,0.424-0.287,0.433c-0.993,0.028-1.85-0.307-2.598-0.946C32.25,27.121,32.14,27.023,31.998,26.9z M27.459,22.814
		c0.472-0.516,0.824-0.964,1.279-1.311c0.152-0.116,0.271-0.174,0.47-0.032c0.497,0.356,0.515,0.347,0.121,0.829
		c-0.208,0.255-0.427,0.507-0.673,0.723c-0.342,0.3-0.715,0.564-1.09,0.855c0.25,0.124,0.489,0.108,0.721,0.062
		c0.748-0.149,1.375-0.537,1.86-1.104c0.279-0.328,0.51-0.469,0.969-0.378c0.721,0.142,1.298-0.291,1.377-0.91
		c-0.013-0.007-0.026-0.022-0.037-0.02c-0.058,0.013-0.114,0.034-0.173,0.044c-1.059,0.19-1.952-0.136-2.689-0.896
		c-0.213-0.22-0.262-0.511-0.125-0.794c0.121-0.251,0.369-0.289,0.618-0.275c0.224,0.013,0.447,0.039,0.669,0.074
		c0.322,0.052,0.628,0.015,0.915-0.14c0.277-0.15,0.487-0.348,0.474-0.7c-0.014-0.345-0.183-0.573-0.498-0.736
		c0.03,0.574-0.102,0.709-0.656,0.73c-0.954,0.036-1.72-0.323-2.299-1.083c-0.362-0.473-0.351-0.667,0.088-1.09
		c-0.316-0.16-0.611-0.135-0.884,0.08c-0.269,0.212-0.3,0.507-0.24,0.817c0.055,0.287,0.202,0.528,0.404,0.739
		c0.155,0.162,0.314,0.322,0.46,0.492c0.186,0.216,0.303,0.462,0.15,0.74c-0.146,0.267-0.41,0.337-0.693,0.332
		c-0.288-0.005-0.559-0.094-0.82-0.212c-0.743-0.338-1.324-0.839-1.604-1.657c-0.502,0.637-0.424,1.25,0.23,1.856
		c0.205,0.189,0.252,0.341,0.172,0.615c-0.21,0.723-0.175,1.455,0.074,2.166c0.105,0.303,0.249,0.595,0.613,0.766
		c-0.053-0.771-0.006-1.483,0.173-2.185c0.195-0.768,0.188-0.757,0.925-0.477c0.235,0.089,0.256,0.169,0.147,0.382
		C27.638,21.609,27.466,22.128,27.459,22.814z M29.451,15.177c0.179-0.019,0.372-0.056,0.507-0.216
		c0.145-0.171,0.211-0.352-0.075-0.449c-0.647-0.221-1.094-0.66-1.397-1.259c-0.128-0.254-0.279-0.227-0.448-0.045
		c-0.151,0.161-0.229,0.348-0.196,0.573C27.931,14.405,28.811,15.178,29.451,15.177z M33.815,17.296
		c0.478,0.001,0.826-0.061,1.029-0.425c0.082-0.147,0.132-0.321,0.029-0.47c-0.09-0.13-0.247-0.072-0.377-0.051
		c-0.604,0.094-1.162-0.018-1.678-0.347c-0.093-0.059-0.183-0.188-0.315-0.089c-0.13,0.096-0.186,0.24-0.168,0.396
		c0.031,0.269,0.178,0.474,0.396,0.626C33.088,17.186,33.488,17.29,33.815,17.296z"/>
	<path fill-rule="evenodd" clip-rule="evenodd" fill="#FFFFFF" d="M17.194,8.815c0.93,0.566,1.263,1.819,0.742,2.792
		c-0.236,0.441-0.55,0.828-0.906,1.17c-1.136,1.089-1.273,2.364-0.699,3.752c0.733,1.771,1.704,3.374,3.388,4.421
		c0.136,0.084,0.186,0.155,0.116,0.321c-0.626,1.491-0.869,3.046-0.715,4.763c-1.762-1.207-3.674-1.658-5.751-1.713
		c0.204-0.464,0.447-0.82,0.778-1.101c0.312-0.266,0.659-0.488,1.062-0.781c-0.842-0.02-1.602-0.044-2.341-0.229
		c-0.635-0.16-1.244-0.379-1.572-1.014c-0.257-0.497-0.205-0.576,0.33-0.579c0.692-0.004,1.354-0.117,2.012-0.565
		c-0.447-0.097-0.81-0.155-1.161-0.256c-1.112-0.322-1.903-1.037-2.464-2.035c-0.155-0.275-0.08-0.358,0.209-0.386
		c0.222-0.021,0.445-0.075,0.655-0.15c0.742-0.264,1.024-0.786,0.808-1.459c-0.211-0.658-0.956-1.044-1.625-0.845
		c-0.28,0.083-0.504,0.259-0.73,0.432c-0.226,0.173-0.445,0.359-0.688,0.505c-0.604,0.363-1.008,0.2-1.143-0.488
		c-0.054-0.277-0.187-0.251-0.374-0.218c-0.466,0.083-0.847,0.348-1.304,0.661c0.062-0.752,0.312-1.329,0.762-1.809
		c0.841-0.896,1.904-1.284,3.116-1.236c0.371,0.015,0.43-0.09,0.375-0.422c-0.11-0.674-0.446-1.129-1.125-1.306
		c-0.173-0.045-0.344-0.106-0.509-0.178c-0.546-0.238-0.65-0.587-0.27-1.04C8.36,9.599,8.198,9.539,8.072,9.452
		C7.627,9.145,7.109,9.053,6.585,8.978c0.413-0.575,1.607-0.93,2.433-0.727c0.871,0.214,1.457,0.8,1.946,1.506
		c0.37,0.533,0.616,1.128,0.837,1.739c0.691-0.516,0.959-1.482,0.624-2.239c-0.097-0.219-0.237-0.419-0.325-0.641
		c-0.125-0.319-0.095-0.614,0.303-0.698c0.264-0.056,0.209-0.201,0.16-0.363c-0.167-0.54-0.569-0.896-1.012-1.237
		c0.898-0.139,2.02,0.338,2.618,1.189c0.972,1.383,1.164,2.859,0.366,4.403c0.613,0.178,1.119-0.074,1.294-0.657
		c0.073-0.243,0.092-0.503,0.173-0.743c0.15-0.448,0.47-0.561,0.823-0.255c0.322,0.279,0.359,0.057,0.418-0.176
		c0.105-0.421-0.056-0.832-0.064-1.248L17.194,8.815z"/>
	<path fill-rule="evenodd" clip-rule="evenodd" fill="#00FC0D" d="M17.179,8.832c-0.011-0.018-0.022-0.035-0.034-0.052
		c0.016,0.012,0.033,0.024,0.049,0.036L17.179,8.832z"/>
</g>
</svg>
