<?xml version="1.0" encoding="utf-8"?>
<!-- Generator: Adobe Illustrator 15.0.0, SVG Export Plug-In  -->
<!DOCTYPE svg PUBLIC "-//W3C//DTD SVG 1.1//EN" "http://www.w3.org/Graphics/SVG/1.1/DTD/svg11.dtd" [
	<!ENTITY ns_flows "http://ns.adobe.com/Flows/1.0/">
]>
<svg version="1.1"
	 xmlns="http://www.w3.org/2000/svg" xmlns:xlink="http://www.w3.org/1999/xlink" xmlns:a="http://ns.adobe.com/AdobeSVGViewerExtensions/3.0/"
	 x="0px" y="0px" width="19px" height="20px" viewBox="0 0 19 20" overflow="visible" enable-background="new 0 0 19 20"
	 xml:space="preserve">
<defs>
</defs>
<path fill-rule="evenodd" clip-rule="evenodd" fill="#003965" d="M13,7.5c0,3.25-3,5.5-5.5,5.5C4,13,2,10,2,7.5C2,4.75,4,2,7.5,2
	C10.75,2,13,4.75,13,7.5z M15,7.5C15,12,11.5,15,7.5,15C2.75,15,0,11.5,0,7.25C0,2.75,3.5,0,7.5,0C12,0,15,3.5,15,7.5z"/>
<path fill-rule="evenodd" clip-rule="evenodd" fill="#003965" d="M18.5,18.5c0,0.75-0.25,0.75-0.25,1h-1l-4.75-4.75V13.5H13
	C14.25,13.5,18.5,18.25,18.5,18.5z"/>
</svg>
