<?xml version="1.0" encoding="utf-8"?>
<!-- Generator: Adobe Illustrator 15.0.0, SVG Export Plug-In  -->
<!DOCTYPE svg PUBLIC "-//W3C//DTD SVG 1.1//EN" "http://www.w3.org/Graphics/SVG/1.1/DTD/svg11.dtd" [
	<!ENTITY ns_flows "http://ns.adobe.com/Flows/1.0/">
]>
<svg version="1.1"
	 xmlns="http://www.w3.org/2000/svg" xmlns:xlink="http://www.w3.org/1999/xlink" xmlns:a="http://ns.adobe.com/AdobeSVGViewerExtensions/3.0/"
	 x="0px" y="0px" width="24px" height="23px" viewBox="0 0 24 23" overflow="visible" enable-background="new 0 0 24 23"
	 xml:space="preserve">
<defs>
</defs>
<path fill-rule="evenodd" clip-rule="evenodd" fill="#FFFFFF" d="M2.88,0c1.59,0,2.89,1.24,2.89,2.77s-1.3,2.77-2.89,2.77
	C1.29,5.54,0,4.3,0,2.77S1.29,0,2.88,0z M0,8h5v15H0V8z"/>
<path fill="#FFFFFF" d="M8,8h5v1.74h0.07c0.66-1.21,2.55-2.49,4.97-2.49c5.03,0,5.96,3.19,5.96,7.32V23h-5v-7.47
	c0-1.78-0.5-4.07-3.05-4.07c-2.59,0-2.95,1.94-2.95,3.94V23H8V8z"/>
</svg>
