<?xml version="1.0" encoding="utf-8"?>
<!-- Generator: Adobe Illustrator 16.0.4, SVG Export Plug-In . SVG Version: 6.00 Build 0)  -->
<!DOCTYPE svg PUBLIC "-//W3C//DTD SVG 1.1//EN" "http://www.w3.org/Graphics/SVG/1.1/DTD/svg11.dtd">
<svg version="1.1" id="Layer_1" xmlns="http://www.w3.org/2000/svg" xmlns:xlink="http://www.w3.org/1999/xlink" x="0px" y="0px"
	 width="45.1px" height="45px" viewBox="-0.1 0 45.1 45" enable-background="new -0.1 0 45.1 45" xml:space="preserve">
<g>
	<path fill="#FEFDFD" d="M16.5,22c0-1.6,0-3.1,0-4.7c0.1-1.3,0.6-2.4,1.5-3.3c1.7-1.8,3.8-2.4,6.1-1.7c2.3,0.7,3.7,2.3,4.2,4.7
		c0.2,0.8,0,1.7,0,2.5c0,0.2-0.1,0.2-0.3,0.3c-0.7,0.2-1.3,0.5-2,0.7c-0.1,0.1-0.3,0.1-0.4,0c-0.4-0.2-0.9-0.4-1.4-0.6
		c-0.2-0.1-0.3-0.2-0.3-0.4c0-0.4,0-0.8,0-1.2c0-1-0.7-1.8-1.6-1.8c-0.9,0-1.6,0.8-1.6,1.8c0,3,0.1,6,0,9c0,1.5-0.8,2.7-1.9,3.8
		c-1.7,1.6-3.7,2.1-5.9,1.4c-2.3-0.8-3.8-2.5-4.1-5c-0.2-1.4,0-2.8,0-4.2C9,23,9.1,23,9.2,23c1.3,0,2.6,0,4,0c0.3,0,0.3,0.2,0.3,0.4
		c0,1.1,0,2.2,0,3.3c0,0.9,0.7,1.6,1.5,1.6s1.6-0.7,1.6-1.6C16.6,25.1,16.6,23.6,16.5,22C16.6,22,16.6,22,16.5,22z"/>
	<path fill="#FEFDFD" d="M36.1,25.5c0,1.1,0.1,2.2-0.3,3.2c-1,2.4-3.5,4.2-5.9,4c-2.7-0.2-5-2.2-5.6-4.9c-0.2-0.9-0.1-1.9-0.1-2.8
		c0-0.5,0-1,0-1.6c0-0.3,0.1-0.4,0.3-0.2c1.1,0.8,2.2,0.5,3.4,0.1c0.7-0.3,0.8-0.2,0.8,0.6c0,1,0,1.9,0,2.9s0.7,1.8,1.6,1.8
		c0.9,0,1.6-0.8,1.6-1.8c0-1.1,0-2.2,0-3.2c0-0.3,0-0.4,0.4-0.4c1.2,0,2.4,0,3.6,0c0.3,0,0.4,0.1,0.4,0.4
		C36.1,24.2,36.1,24.8,36.1,25.5z"/>
</g>
</svg>
