<?xml version="1.0" encoding="utf-8"?>
<!-- Generator: Adobe Illustrator 16.0.4, SVG Export Plug-In . SVG Version: 6.00 Build 0)  -->
<!DOCTYPE svg PUBLIC "-//W3C//DTD SVG 1.1//EN" "http://www.w3.org/Graphics/SVG/1.1/DTD/svg11.dtd">
<svg version="1.1" id="Layer_1" xmlns="http://www.w3.org/2000/svg" xmlns:xlink="http://www.w3.org/1999/xlink" x="0px" y="0px"
	 width="29.6px" height="29.7px" viewBox="7.4 0.2 29.6 29.7" enable-background="new 7.4 0.2 29.6 29.7" xml:space="preserve">
<g>
	<path id="Blue_1_" fill="#3B5998" d="M35.4,29.8c0.9,0,1.6-0.7,1.6-1.6V1.8c0-0.9-0.7-1.6-1.6-1.6H9c-0.9,0-1.6,0.7-1.6,1.6v26.4
		c0,0.9,0.7,1.6,1.6,1.6H35.4z"/>
	<path id="f" fill="#FFFFFF" d="M27.9,29.8V18.4h3.9l0.6-4.5H28V11c0-1.3,0.4-2.2,2.2-2.2h2.4v-4c-0.6,0-2-0.1-3.6-0.1
		c-3.4,0-5.8,2.1-5.8,5.9v3.3h-3.9v4.5h3.9v11.5h4.7V29.8z"/>
</g>
</svg>
