<?xml version="1.0" encoding="utf-8"?>
<!-- Generator: Adobe Illustrator 16.0.4, SVG Export Plug-In . SVG Version: 6.00 Build 0)  -->
<!DOCTYPE svg PUBLIC "-//W3C//DTD SVG 1.1//EN" "http://www.w3.org/Graphics/SVG/1.1/DTD/svg11.dtd">
<svg version="1.1" id="Layer_1" xmlns="http://www.w3.org/2000/svg" xmlns:xlink="http://www.w3.org/1999/xlink" x="0px" y="0px"
	 width="45px" height="44.9px" viewBox="-22.5 -22.5 45 44.9" enable-background="new -22.5 -22.5 45 44.9" xml:space="preserve">
<g>
	<path fill="#FDFEFE" d="M4.8-3.9c0.1,0,0.2,0,0.3,0c2,0,4,0,6,0c0.3,0,0.4,0.1,0.4,0.4c0,4.2,0,8.3,0,12.5c0,1.5-1,2.5-2.5,2.5
		c-6,0-11.9,0-17.9,0c-1.6,0-2.5-0.9-2.5-2.5c0-4.1,0-8.2,0-12.3c0-0.5,0.1-0.5,0.6-0.5c1.9,0,3.8,0,5.7,0c0.4,0,0.4,0,0.3,0.4
		C-6-0.4-4.5,3-1.5,4c3,0.9,6.2-0.9,6.9-4c0.2-1.1,0.1-2.1-0.3-3.2C4.9-3.6,4.8-3.8,4.8-3.9z"/>
	<path fill="#FDFEFE" d="M7.8-4.6c-1.1,0-2.1,0-3.1,0c-0.3,0-0.4-0.1-0.6-0.3c-2.2-2.6-6-2.6-8.2,0c-0.2,0.2-0.4,0.3-0.7,0.3
		c-2.1,0-4.1,0-6.2,0c-0.3,0-0.5-0.1-0.5-0.5c0-1.4,0-2.7,0-4c0-1.5,1-2.4,2.5-2.4c6,0,12,0,18,0c1.5,0,2.4,0.9,2.5,2.4
		c0,1.4,0,2.8,0,4.2c0,0.3-0.1,0.4-0.4,0.4C10-4.6,8.9-4.6,7.8-4.6z M7.6-5.8c0.4,0,0.8,0,1.2,0c0.8-0.1,1.3-0.7,1.4-1.5
		c0-0.5,0-0.9,0-1.3c0-0.8-0.6-1.5-1.5-1.5c-0.7,0-1.4,0-2.1,0c-0.8,0-1.4,0.6-1.5,1.5c0,0.5,0,0.9,0,1.4c0,0.8,0.6,1.4,1.4,1.5
		C6.9-5.8,7.2-5.8,7.6-5.8z M-9-8c0,0.7,0,1.4,0,2.1c0,0.3,0.1,0.3,0.4,0.3c0.2,0,0.4,0,0.4-0.3c0-1.4,0-2.7,0-4.1
		c0-0.3-0.1-0.3-0.4-0.3c-0.3,0-0.4,0-0.4,0.3C-9-9.3-9-8.7-9-8z M-5.6-7.9c0-0.7,0-1.4,0-2.1c0-0.3-0.2-0.3-0.4-0.3
		c-0.3,0-0.3,0.1-0.3,0.3c0,1.4,0,2.7,0,4c0,0.3,0.1,0.3,0.4,0.3c0.3,0,0.4-0.1,0.4-0.3C-5.6-6.6-5.6-7.3-5.6-7.9z M-6.9-8
		c0-0.7,0-1.3,0-2c0-0.3-0.1-0.4-0.4-0.4c-0.3,0-0.4,0.1-0.4,0.4c0,1.3,0,2.7,0,4c0,0.3,0.1,0.4,0.4,0.4C-7-5.6-6.9-5.7-6.9-6
		C-6.9-6.7-6.9-7.3-6.9-8z M-9.6-10.1c-0.5,0.3-0.7,0.6-0.7,1.1c0,1,0,2,0,3c0,0.3,0.1,0.4,0.3,0.4c0.3,0,0.3-0.1,0.3-0.4
		c0-1.1,0-2.2,0-3.3C-9.6-9.5-9.6-9.8-9.6-10.1z"/>
	<path fill="#FDFEFE" d="M4.8-1.4c0,2.7-2.1,4.8-4.8,4.8c-2.6,0-4.8-2.2-4.8-4.8c0-2.7,2.2-4.8,4.8-4.8C2.7-6.2,4.8-4.1,4.8-1.4z
		 M0,2.5c2.1,0,3.9-1.7,3.9-3.9c0-2.2-1.7-3.9-3.8-3.9c-2.2,0-3.9,1.7-4,3.9C-3.9,0.8-2.2,2.5,0,2.5z"/>
</g>
</svg>
