<?xml version="1.0" encoding="utf-8"?>
<!-- Generator: Adobe Illustrator 16.0.4, SVG Export Plug-In . SVG Version: 6.00 Build 0)  -->
<!DOCTYPE svg PUBLIC "-//W3C//DTD SVG 1.1//EN" "http://www.w3.org/Graphics/SVG/1.1/DTD/svg11.dtd">
<svg version="1.1" id="Layer_1" xmlns="http://www.w3.org/2000/svg" xmlns:xlink="http://www.w3.org/1999/xlink" x="0px" y="0px"
	 width="11px" height="19px" viewBox="0 0 11 19" enable-background="new 0 0 11 19" xml:space="preserve">
<path fill="#D3D3D3" d="M0,19c1.5-0.1,2.9-0.5,4.2-1c1.3-0.6,2.5-1.4,3.5-2.4s1.8-2.2,2.4-3.6c0.6-1.4,0.9-2.9,0.9-4.5
	c0-1-0.2-2-0.5-2.9S9.7,2.9,9.2,2.2C8.6,1.5,8,1,7.2,0.6C6.5,0.2,5.7,0,4.8,0C4.1,0,3.5,0.1,2.9,0.3c-0.6,0.2-1.1,0.6-1.5,1
	C1,1.7,0.6,2.2,0.4,2.8C0.1,3.3,0,3.9,0,4.5s0.1,1.2,0.2,1.7c0.2,0.5,0.4,1,0.7,1.3c0.4,0.4,0.7,0.7,1.1,1c0.4,0.2,0.8,0.3,1.3,0.3
	c0.4,0,0.8-0.1,1-0.2C4.6,8.4,4.8,8.2,5,8s0.4-0.4,0.6-0.5C5.8,7.4,6,7.3,6.3,7.3S6.8,7.5,7,7.9s0.3,0.8,0.3,1.4
	c0,0.9-0.2,1.7-0.6,2.6c-0.4,0.8-0.9,1.6-1.6,2.3c-0.7,0.7-1.4,1.3-2.3,1.9C2,16.6,1,17,0,17.3V19z"/>
</svg>
