<?xml version="1.0" encoding="utf-8"?>
<!-- Generator: Adobe Illustrator 15.0.0, SVG Export Plug-In  -->
<!DOCTYPE svg PUBLIC "-//W3C//DTD SVG 1.1//EN" "http://www.w3.org/Graphics/SVG/1.1/DTD/svg11.dtd" [
	<!ENTITY ns_flows "http://ns.adobe.com/Flows/1.0/">
]>
<svg version="1.1"
	 xmlns="http://www.w3.org/2000/svg" xmlns:xlink="http://www.w3.org/1999/xlink" xmlns:a="http://ns.adobe.com/AdobeSVGViewerExtensions/3.0/"
	 x="0px" y="0px" width="33px" height="43px" viewBox="0 -0.997 33 43" overflow="visible" enable-background="new 0 -0.997 33 43"
	 xml:space="preserve">
<defs>
</defs>
<path fill-rule="evenodd" clip-rule="evenodd" fill="#E6E7E7" d="M31.99,17.043c0.23,8.32-2.4,14.62-7.91,18.9
	c-4.8,4.04-11.51,6.06-20.14,6.06v-2.5c5.75,0,10.55-1.07,14.38-3.21c3.84-2.14,5.76-4.63,5.76-7.49c-0.24-1.66-1.21-2.4-2.65-2.4
	c-0.5,0.03-0.64,0.12-1.19,0.32c-1.55,0.61-3.86,1.2-5.96,1.2c-3.79,0-7.42-1.47-10.1-4.09C1.51,21.224,0,17.673,0,13.974
	c0-3.7,1.51-7.25,4.18-9.87c2.68-2.62,6.31-4.09,10.1-4.09c0.37,0,0.73-0.03,1.1,0c4.86,0.08,9.19,2.68,11.71,5.4
	C29.73,8.023,31.74,11.813,31.99,17.043z"/>
</svg>
