<?xml version="1.0" encoding="utf-8"?>
<!-- Generator: Adobe Illustrator 15.0.0, SVG Export Plug-In  -->
<!DOCTYPE svg PUBLIC "-//W3C//DTD SVG 1.1//EN" "http://www.w3.org/Graphics/SVG/1.1/DTD/svg11.dtd" [
	<!ENTITY ns_flows "http://ns.adobe.com/Flows/1.0/">
]>
<svg version="1.1"
	 xmlns="http://www.w3.org/2000/svg" xmlns:xlink="http://www.w3.org/1999/xlink" xmlns:a="http://ns.adobe.com/AdobeSVGViewerExtensions/3.0/"
	 x="0px" y="0px" width="11px" height="19px" viewBox="0 0 11 19" overflow="visible" enable-background="new 0 0 11 19"
	 xml:space="preserve">
<defs>
</defs>
<path fill-rule="evenodd" clip-rule="evenodd" fill="#009AA6" d="M11,0C9.529,0.09,8.12,0.45,6.79,1.05
	C5.47,1.681,4.3,2.49,3.29,3.49c-1.01,1.02-1.8,2.21-2.4,3.57C0.3,8.439,0,9.92,0,11.529c0,1.021,0.17,1.98,0.49,2.891
	s0.77,1.7,1.32,2.391c0.56,0.68,1.22,1.219,1.96,1.609C4.53,18.811,5.33,19,6.2,19c0.68,0,1.31-0.109,1.88-0.34
	c0.58-0.23,1.1-0.551,1.529-0.96c0.44-0.421,0.781-0.9,1.021-1.45C10.891,15.7,11,15.12,11,14.48c0-0.631-0.08-1.201-0.25-1.701
	c-0.17-0.52-0.41-0.959-0.721-1.34c-0.309-0.379-0.67-0.67-1.059-0.89C8.58,10.34,8.16,10.23,7.7,10.23
	c-0.421,0-0.771,0.08-1.021,0.22C6.43,10.609,6.2,10.779,5.99,10.96c-0.2,0.2-0.4,0.37-0.59,0.5c-0.19,0.16-0.43,0.229-0.71,0.229
	c-0.299,0-0.54-0.18-0.739-0.58c-0.18-0.379-0.28-0.83-0.28-1.359c0-0.88,0.189-1.73,0.58-2.58c0.391-0.83,0.91-1.609,1.57-2.33
	c0.67-0.71,1.43-1.35,2.321-1.909C9.029,2.399,9.98,1.96,11,1.67V0z"/>
</svg>
