<?xml version="1.0" encoding="utf-8"?>
<!-- Generator: Adobe Illustrator 16.0.4, SVG Export Plug-In . SVG Version: 6.00 Build 0)  -->
<!DOCTYPE svg PUBLIC "-//W3C//DTD SVG 1.1//EN" "http://www.w3.org/Graphics/SVG/1.1/DTD/svg11.dtd">
<svg version="1.1" id="Layer_1" xmlns="http://www.w3.org/2000/svg" xmlns:xlink="http://www.w3.org/1999/xlink" x="0px" y="0px"
	 width="11px" height="19px" viewBox="0 0 11 19" enable-background="new 0 0 11 19" xml:space="preserve">
<path fill="#D3D3D3" d="M11,0C9.5,0.1,8.1,0.5,6.8,1C5.5,1.7,4.3,2.5,3.3,3.5S1.5,5.7,0.9,7.1C0.3,8.4,0,9.9,0,11.5
	c0,1,0.2,2,0.5,2.9c0.3,0.9,0.8,1.7,1.3,2.4c0.6,0.7,1.2,1.2,2,1.6C4.5,18.8,5.3,19,6.2,19c0.7,0,1.3-0.1,1.9-0.3
	c0.6-0.2,1.1-0.6,1.5-1c0.4-0.4,0.8-0.9,1-1.5c0.3-0.5,0.4-1.1,0.4-1.8c0-0.6-0.1-1.2-0.2-1.7c-0.2-0.5-0.4-1-0.7-1.3
	C9.8,11,9.4,10.7,9,10.5s-0.8-0.3-1.3-0.3c-0.4,0-0.8,0.1-1,0.2C6.4,10.6,6.2,10.8,6,11s-0.4,0.4-0.6,0.5c-0.2,0.2-0.4,0.2-0.7,0.2
	c-0.3,0-0.5-0.2-0.7-0.6c-0.2-0.4-0.3-0.8-0.3-1.4c0-0.9,0.2-1.7,0.6-2.6c0.4-0.8,0.9-1.6,1.6-2.3c0.7-0.7,1.4-1.3,2.3-1.9
	C9,2.4,10,2,11,1.7V0z"/>
</svg>
