<?xml version="1.0" encoding="utf-8"?>
<!-- Generator: Adobe Illustrator 15.0.0, SVG Export Plug-In  -->
<!DOCTYPE svg PUBLIC "-//W3C//DTD SVG 1.1//EN" "http://www.w3.org/Graphics/SVG/1.1/DTD/svg11.dtd" [
	<!ENTITY ns_flows "http://ns.adobe.com/Flows/1.0/">
]>
<svg version="1.1"
	 xmlns="http://www.w3.org/2000/svg" xmlns:xlink="http://www.w3.org/1999/xlink" xmlns:a="http://ns.adobe.com/AdobeSVGViewerExtensions/3.0/"
	 x="0px" y="0px" width="33px" height="43px" viewBox="-0.996 0 33 43" overflow="visible" enable-background="new -0.996 0 33 43"
	 xml:space="preserve">
<defs>
</defs>
<path fill-rule="evenodd" clip-rule="evenodd" fill="#E6E7E7" d="M0.014,24.96c-0.23-8.32,2.4-14.62,7.91-18.9
	C12.724,2.02,19.435,0,28.064,0v2.5c-5.75,0-10.551,1.07-14.38,3.21c-3.84,2.14-5.76,4.63-5.76,7.49c0.24,1.66,1.21,2.4,2.65,2.4
	c0.5-0.03,0.64-0.12,1.19-0.32c1.55-0.61,3.86-1.2,5.96-1.2c3.79,0,7.42,1.47,10.1,4.09c2.671,2.61,4.181,6.16,4.181,9.86
	s-1.51,7.25-4.181,9.869c-2.68,2.621-6.31,4.091-10.1,4.091c-0.369,0-0.729,0.03-1.1,0c-4.86-0.08-9.19-2.68-11.71-5.4
	C2.274,33.98,0.264,30.189,0.014,24.96z"/>
</svg>
