<?xml version="1.0" encoding="utf-8"?>
<!-- Generator: Adobe Illustrator 15.0.0, SVG Export Plug-In  -->
<!DOCTYPE svg PUBLIC "-//W3C//DTD SVG 1.1//EN" "http://www.w3.org/Graphics/SVG/1.1/DTD/svg11.dtd" [
	<!ENTITY ns_flows "http://ns.adobe.com/Flows/1.0/">
]>
<svg version="1.1"
	 xmlns="http://www.w3.org/2000/svg" xmlns:xlink="http://www.w3.org/1999/xlink" xmlns:a="http://ns.adobe.com/AdobeSVGViewerExtensions/3.0/"
	 x="0px" y="0px" width="11px" height="19px" viewBox="0 0 11 19" overflow="visible" enable-background="new 0 0 11 19"
	 xml:space="preserve">
<defs>
</defs>
<path fill-rule="evenodd" clip-rule="evenodd" fill="#009AA6" d="M0,19c1.47-0.09,2.88-0.45,4.21-1.05
	c1.32-0.631,2.49-1.44,3.5-2.44c1.01-1.02,1.8-2.21,2.4-3.57C10.7,10.561,11,9.08,11,7.47c0-1.02-0.17-1.98-0.49-2.89
	s-0.77-1.7-1.32-2.39c-0.56-0.68-1.22-1.22-1.96-1.61C6.47,0.19,5.67,0,4.8,0C4.12,0,3.49,0.11,2.92,0.34
	C2.34,0.57,1.82,0.89,1.39,1.3C0.95,1.72,0.61,2.2,0.37,2.75C0.11,3.3,0,3.88,0,4.52c0,0.63,0.08,1.2,0.25,1.7
	c0.17,0.52,0.41,0.96,0.72,1.34c0.31,0.38,0.67,0.67,1.06,0.89C2.42,8.66,2.84,8.77,3.3,8.77c0.42,0,0.77-0.08,1.02-0.22
	C4.57,8.39,4.8,8.22,5.01,8.04c0.2-0.2,0.4-0.37,0.59-0.5c0.19-0.16,0.43-0.23,0.71-0.23c0.299,0,0.54,0.18,0.739,0.58
	c0.18,0.38,0.28,0.83,0.28,1.36c0,0.88-0.189,1.73-0.58,2.58c-0.391,0.83-0.91,1.609-1.57,2.33c-0.67,0.71-1.43,1.35-2.32,1.909
	C1.97,16.601,1.02,17.04,0,17.33V19z"/>
</svg>
